<svg width="33" height="43" viewBox="0 0 33 43" fill="none" xmlns="http://www.w3.org/2000/svg">
<path d="M0 15.3633C0 6.47599 6.75157 0 16.5344 0C26.3173 0 33 6.47599 33 15.3633V26.8685C33 35.7557 26.3173 42.2317 16.5344 42.2317C6.68267 42.2317 0 35.7557 0 26.8685V15.3633ZM4.82255 15.3633V26.8685C4.82255 32.9311 9.16284 37.4092 16.5344 37.4092C23.8372 37.4092 28.1775 32.9311 28.1775 26.8685V15.3633C28.1775 9.30063 23.8372 4.82255 16.5344 4.82255C9.23173 4.82255 4.82255 9.30063 4.82255 15.3633ZM19.6347 22.8727V22.8038H24.4572V22.8727C24.4572 27.6263 21.0125 31.2777 16.5344 31.2777C11.9875 31.2777 8.61169 27.6263 8.61169 22.8727V19.2902C8.61169 14.5365 11.9875 10.8852 16.5344 10.8852C21.0125 10.8852 24.4572 14.5365 24.4572 19.2902V19.3591H19.6347V19.2902C19.6347 17.1545 18.3257 15.7077 16.5344 15.7077C14.7432 15.7077 13.4342 17.1545 13.4342 19.2902V22.8727C13.4342 25.0084 14.7432 26.4551 16.5344 26.4551C18.3257 26.4551 19.6347 25.0084 19.6347 22.8727Z" fill="#152885"/>
</svg>
