<svg preserveAspectRatio="none" width="100%" height="100%" overflow="visible" style="display: block;" viewBox="0 0 36 36" fill="none" xmlns="http://www.w3.org/2000/svg">
<g id="Group 1000002506">
<path id="Vector" d="M17.51 0C7.84296 0 0 7.83681 0 17.51C0 27.1832 7.83681 35.02 17.51 35.02C27.1832 35.02 35.02 27.1832 35.02 17.51C35.02 7.83681 27.177 0 17.51 0ZM17.5346 33.9083C8.67823 33.9083 1.09322 26.9805 1.09322 17.5284C1.09322 8.07634 8.67823 1.1485 17.5346 1.1485C26.3909 1.1485 33.9145 8.07634 33.9145 17.5284C33.9145 26.9805 26.3233 33.9083 17.5346 33.9083Z" fill="var(--fill-0, #152885)"/>
<path id="Vector_2" d="M17.5348 4.15625C10.1893 4.15625 4.28711 9.88032 4.28711 17.5267C4.28711 25.1732 10.1893 30.8972 17.5348 30.8972C24.8802 30.8972 30.7271 25.1732 30.7271 17.5267C30.7271 9.88032 24.825 4.15625 17.5348 4.15625ZM17.7743 27.4026C12.0502 27.4026 7.7756 23.2447 7.7756 17.5267C7.7756 11.8088 12.0502 7.65088 17.6515 7.65088C21.447 7.65088 23.7932 8.97749 25.4821 10.9674L21.6251 14.5173C20.7223 13.5531 19.4571 12.7731 17.7743 12.7731C15.1825 12.7731 13.8006 14.8797 13.8006 17.5329C13.8006 20.1861 15.1825 22.2927 17.8357 22.2927C19.887 22.2927 21.0908 21.2118 21.9322 20.4256L25.7831 23.9203C23.9713 26.0269 21.6866 27.4087 17.7743 27.4087V27.4026Z" fill="var(--fill-0, #152885)"/>
</g>
</svg>
