<svg width="70" height="70" viewBox="0 0 70 70" fill="none" xmlns="http://www.w3.org/2000/svg">
<path d="M35.0002 6.48999C19.2602 6.48999 6.49023 19.25 6.49023 35C6.49023 50.75 19.2502 63.51 35.0002 63.51C50.7502 63.51 63.5102 50.75 63.5102 35C63.5102 19.25 50.7402 6.48999 35.0002 6.48999ZM35.0402 61.7C20.6202 61.7 8.27024 50.42 8.27024 35.03C8.27024 19.64 20.6202 8.35999 35.0402 8.35999C49.4602 8.35999 61.7102 19.64 61.7102 35.03C61.7102 50.42 49.3502 61.7 35.0402 61.7Z" fill="#FAF8EF"/>
<path d="M35.0407 13.26C23.0807 13.26 13.4707 22.58 13.4707 35.03C13.4707 47.48 23.0807 56.8 35.0407 56.8C47.0007 56.8 56.5207 47.48 56.5207 35.03C56.5207 22.58 46.9107 13.26 35.0407 13.26ZM35.4307 51.11C26.1107 51.11 19.1507 44.34 19.1507 35.03C19.1507 25.72 26.1107 18.95 35.2307 18.95C41.4107 18.95 45.2307 21.11 47.9807 24.35L41.7007 30.13C40.2307 28.56 38.1707 27.29 35.4307 27.29C31.2107 27.29 28.9607 30.72 28.9607 35.04C28.9607 39.36 31.2107 42.79 35.5307 42.79C38.8707 42.79 40.8307 41.03 42.2007 39.75L48.4707 45.44C45.5207 48.87 41.8007 51.12 35.4307 51.12V51.11Z" fill="#FAF8EF"/>
</svg>
