<svg width="1199" height="569" viewBox="0 0 1199 569" fill="none" xmlns="http://www.w3.org/2000/svg">
<path d="M377.883 206.279C377.883 86.9516 468.535 0 599.887 0C731.24 0 820.966 86.9516 820.966 206.279V360.757C820.966 480.084 731.24 567.036 599.887 567.036C467.61 567.036 377.883 480.084 377.883 360.757V206.279ZM442.634 206.279V360.757C442.634 442.158 500.91 502.285 599.887 502.285C697.939 502.285 756.215 442.158 756.215 360.757V206.279C756.215 124.877 697.939 64.7512 599.887 64.7512C501.835 64.7512 442.634 124.877 442.634 206.279ZM641.513 307.106V306.181H706.264V307.106C706.264 370.932 660.013 419.958 599.887 419.958C538.836 419.958 493.51 370.932 493.51 307.106V259.005C493.51 195.179 538.836 146.153 599.887 146.153C660.013 146.153 706.264 195.179 706.264 259.005V259.93H641.513V259.005C641.513 230.329 623.937 210.904 599.887 210.904C575.837 210.904 558.261 230.329 558.261 259.005V307.106C558.261 335.781 575.837 355.207 599.887 355.207C623.937 355.207 641.513 335.781 641.513 307.106Z" fill="#152885"/>
<path d="M0 207.49C0 88.1626 90.6517 1.21094 222.004 1.21094C353.357 1.21094 443.083 88.1626 443.083 207.49V361.968C443.083 481.295 353.357 568.247 222.004 568.247C89.7267 568.247 0 481.295 0 361.968V207.49ZM64.7512 207.49V361.968C64.7512 443.369 123.027 503.495 222.004 503.495C320.056 503.495 378.332 443.369 378.332 361.968V207.49C378.332 126.088 320.056 65.9622 222.004 65.9622C123.952 65.9622 64.7512 126.088 64.7512 207.49ZM263.63 308.317V307.392H328.381V308.317C328.381 372.143 282.13 421.169 222.004 421.169C160.953 421.169 115.627 372.143 115.627 308.317V260.216C115.627 196.39 160.953 147.364 222.004 147.364C282.13 147.364 328.381 196.39 328.381 260.216V261.141H263.63V260.216C263.63 231.54 246.055 212.115 222.004 212.115C197.954 212.115 180.378 231.54 180.378 260.216V308.317C180.378 336.992 197.954 356.418 222.004 356.418C246.055 356.418 263.63 336.992 263.63 308.317Z" fill="#152885"/>
<path d="M755.773 207.49C755.773 88.1626 846.425 1.21094 977.778 1.21094C1109.13 1.21094 1198.86 88.1626 1198.86 207.49V361.968C1198.86 481.295 1109.13 568.247 977.778 568.247C845.5 568.247 755.773 481.295 755.773 361.968V207.49ZM820.525 207.49V361.968C820.525 443.369 878.801 503.495 977.778 503.495C1075.83 503.495 1134.11 443.369 1134.11 361.968V207.49C1134.11 126.088 1075.83 65.9622 977.778 65.9622C879.726 65.9622 820.525 126.088 820.525 207.49ZM1019.4 308.317V307.392H1084.15V308.317C1084.15 372.143 1037.9 421.169 977.778 421.169C916.727 421.169 871.401 372.143 871.401 308.317V260.216C871.401 196.39 916.727 147.364 977.778 147.364C1037.9 147.364 1084.15 196.39 1084.15 260.216V261.141H1019.4V260.216C1019.4 231.54 1001.83 212.115 977.778 212.115C953.727 212.115 936.152 231.54 936.152 260.216V308.317C936.152 336.992 953.727 356.418 977.778 356.418C1001.83 356.418 1019.4 336.992 1019.4 308.317Z" fill="#152885"/>
</svg>
