<svg width="1157" height="130" viewBox="0 0 1157 130" fill="none" xmlns="http://www.w3.org/2000/svg">
<path d="M1147.61 14.998C1146.83 14.2889 1145.74 13.9571 1144.38 13.9571H1140.04H1139.73V14.2656V26.6073V26.9159H1140.04H1142.33H1142.64V26.6073V22.3785H1144.22C1145.06 23.8291 1145.78 25.2787 1146.39 26.7272L1146.47 26.9159H1146.68H1149.3H1149.77L1149.58 26.4801C1148.87 24.9247 1148.03 23.3437 1147.05 21.7372C1147.56 21.4448 1147.96 21.0519 1148.26 20.5587C1148.61 19.9724 1148.78 19.2991 1148.78 18.5489V17.7685C1148.78 16.6279 1148.4 15.6929 1147.61 14.998ZM1145.45 16.9033L1145.45 16.9035L1145.46 16.9123C1145.69 17.1117 1145.81 17.3847 1145.81 17.7685V18.5489C1145.81 18.9473 1145.69 19.2345 1145.45 19.4458C1145.24 19.6424 1144.9 19.7649 1144.38 19.7649H1142.64V16.5706H1144.38C1144.89 16.5706 1145.23 16.6975 1145.45 16.9033Z" fill="#152885" stroke="#152885" stroke-width="0.617085"/>
<path d="M57.7461 117.621C57.7461 117.621 57.0763 118.43 55.932 119.742C49.5406 126.468 40.1906 129.594 31.0082 129.594C12.8108 129.594 0 118.291 0 101.377L0 63.475C0 46.5893 12.7829 35.2578 31.0082 35.2578C40.0232 35.2578 52.3316 39.1931 57.7461 47.2313C58.3881 48.2081 58.5555 49.2129 58.5555 50.0223C58.5555 52.8133 56.0994 54.9345 53.4759 54.9345C52.1641 54.9345 50.6849 54.4321 49.5406 52.8133C49.5406 52.8133 49.3731 52.4784 48.7312 51.8365C44.2934 47.0917 37.4275 45.1101 31.0082 45.1101C17.388 45.1101 9.85229 52.9808 9.85229 63.475V101.377C9.85229 111.871 17.388 119.742 31.0082 119.742C37.2322 119.742 45.7727 117.453 49.5406 112.039C50.6849 110.559 52.1641 109.89 53.4759 109.89C56.0994 109.89 58.723 112.039 58.723 114.662C58.723 115.639 58.3881 116.616 57.7461 117.621Z" fill="#152885"/>
<path d="M115.29 129.566C97.5668 129.566 83.3047 115.304 83.3047 97.5812V67.2429C83.3047 49.5199 97.5668 35.2578 115.29 35.2578C133.013 35.2578 147.275 49.5199 147.275 67.2429V97.5812C147.275 115.304 133.013 129.566 115.29 129.566ZM137.422 67.2429C137.422 54.9345 127.57 45.1101 115.29 45.1101C103.009 45.1101 93.157 54.9624 93.157 67.2429V97.5812C93.157 109.89 103.009 119.714 115.29 119.714C127.57 119.714 137.422 109.862 137.422 97.5812V67.2429Z" fill="#152885"/>
<path d="M275.186 127.951C272.73 127.951 270.274 126.304 270.274 123.039V64.0086C270.274 53.5144 261.901 45.1414 251.407 45.1414C240.913 45.1414 232.54 53.5144 232.54 64.0086V123.039C232.54 126.472 230.083 128.118 227.627 128.118C225.171 128.118 222.715 126.472 222.715 123.039V64.0086C222.715 53.5144 214.342 45.1414 203.848 45.1414C193.354 45.1414 184.981 53.5144 184.981 64.0086V123.039C184.981 126.332 182.525 127.951 180.068 127.951C177.612 127.951 175.156 126.304 175.156 123.039V64.0086C175.156 48.0998 187.939 35.2891 203.848 35.2891C213.7 35.2891 222.548 40.3687 227.627 47.9324C232.707 40.3966 241.582 35.2891 251.407 35.2891C267.316 35.2891 280.098 48.0719 280.098 64.0086V123.039C280.098 126.332 277.642 127.951 275.186 127.951Z" fill="#152885"/>
<path d="M408.022 127.951C405.566 127.951 403.11 126.304 403.11 123.039V64.0086C403.11 53.5144 394.737 45.1414 384.243 45.1414C373.749 45.1414 365.376 53.5144 365.376 64.0086V123.039C365.376 126.472 362.919 128.118 360.463 128.118C358.007 128.118 355.551 126.472 355.551 123.039V64.0086C355.551 53.5144 347.178 45.1414 336.684 45.1414C326.19 45.1414 317.817 53.5144 317.817 64.0086V123.039C317.817 126.332 315.36 127.951 312.904 127.951C310.448 127.951 307.992 126.304 307.992 123.039V64.0086C307.992 48.0998 320.775 35.2891 336.684 35.2891C346.536 35.2891 355.384 40.3687 360.463 47.9324C365.543 40.3966 374.418 35.2891 384.243 35.2891C400.152 35.2891 412.934 48.0719 412.934 64.0086V123.039C412.934 126.332 410.478 127.951 408.022 127.951Z" fill="#152885"/>
<path d="M472.774 129.566C455.051 129.566 440.789 115.304 440.789 97.5812V67.2429C440.789 49.5199 455.051 35.2578 472.774 35.2578C490.497 35.2578 504.759 49.5199 504.759 67.2429V97.5812C504.759 115.304 490.497 129.566 472.774 129.566ZM494.907 67.2429C494.907 54.9345 485.055 45.1101 472.774 45.1101C460.494 45.1101 450.641 54.9624 450.641 67.2429V97.5812C450.641 109.89 460.494 119.714 472.774 119.714C485.055 119.714 494.907 109.862 494.907 97.5812V67.2429Z" fill="#152885"/>
<path d="M591.635 127.951C589.179 127.951 586.723 126.304 586.723 123.039V67.2741C586.723 54.9657 576.87 45.1414 564.59 45.1414C552.309 45.1414 542.457 54.9937 542.457 67.2741V123.039C542.457 126.332 540.001 127.951 537.545 127.951C535.089 127.951 532.633 126.304 532.633 123.039V67.2741C532.633 49.5512 546.895 35.2891 564.618 35.2891C582.341 35.2891 596.603 49.5512 596.603 67.2741V123.039C596.603 126.332 594.147 127.951 591.691 127.951H591.635Z" fill="#152885"/>
<path d="M730.882 43.2834L706.293 124.474C705.483 127.265 703.502 128.744 701.52 128.744C699.706 128.744 697.752 127.433 696.943 124.474L675.285 57.8804L653.794 124.474C652.817 127.433 651.003 128.744 649.021 128.744C647.04 128.744 645.253 127.265 644.444 124.474L619.827 43.2834C619.492 42.6136 619.492 42.1391 619.492 41.6367C619.492 38.6782 622.116 36.8641 624.572 36.8641C626.553 36.8641 628.34 37.8409 629.149 40.3249L649.161 106.584L670.652 40.3249C671.461 37.5339 673.443 36.0547 675.257 36.0547C677.238 36.0547 679.025 37.5339 680.001 40.3249L701.325 106.584L721.504 40.3249C722.174 37.8688 724.127 36.8641 725.942 36.8641C728.565 36.8641 731.021 38.6782 731.021 41.6367C731.021 42.1391 731.021 42.6136 730.854 43.2834H730.882Z" fill="#152885"/>
<path d="M813.003 83.654H763.798V97.5812C763.798 109.387 774.962 119.714 787.577 119.714C793.801 119.714 802.342 117.425 806.109 112.011C807.254 110.532 808.733 109.862 810.045 109.862C812.668 109.862 815.292 112.011 815.292 114.634C815.292 115.611 814.957 116.588 814.315 117.593C814.315 117.593 813.645 118.402 812.501 119.714C806.109 126.44 796.76 129.566 787.577 129.566C770.357 129.566 753.945 115.639 753.945 97.5812V67.2429C753.945 49.5199 768.207 35.2578 785.93 35.2578C803.653 35.2578 817.915 49.5199 817.915 67.2429V78.7419C817.915 81.3654 815.627 83.654 813.003 83.654ZM808.091 67.2429C808.091 54.9345 798.239 45.1101 785.958 45.1101C773.678 45.1101 763.826 54.9624 763.826 67.2429V73.8018H808.119V67.2429H808.091Z" fill="#152885"/>
<path d="M872.352 129.565C856.778 129.565 842.516 120.383 842.516 103.162C842.516 85.9416 856.275 78.5733 871.207 75.4473C871.207 75.4473 884.158 72.6563 892.196 71.0096V63.4739C892.196 52.4773 885.972 45.109 872.687 45.109C857.113 45.109 856.443 54.9613 851.698 54.9613C849.242 54.9613 846.618 52.9796 846.618 50.2165C846.618 48.4024 847.763 46.7557 848.907 45.4718C854.657 38.2431 863.839 35.3125 872.687 35.3125C891.219 35.3125 902.048 47.1185 902.048 63.5297V101.432C902.048 118.317 888.288 129.649 872.352 129.649V129.565ZM892.196 81.0294L871.04 85.7741C859.736 88.3976 852.34 94.6216 852.34 102.995C852.34 113.182 860.211 119.713 872.184 119.713C884.158 119.713 892.196 112.01 892.196 101.348V81.0015V81.0294Z" fill="#152885"/>
<path d="M948.105 129.559C947.603 129.559 946.794 129.559 946.152 129.224C946.152 129.224 945.175 128.889 943.528 127.745C935.015 122.33 931.555 112.004 931.555 102.151V4.91219C931.555 1.6467 934.011 0 936.467 0C938.923 0 941.379 1.6467 941.379 4.91219V102.179C941.379 108.236 943.361 117.251 949.752 120.07C951.873 121.046 952.878 122.861 952.878 124.647C952.878 127.103 950.896 129.559 948.133 129.559H948.105Z" fill="#152885"/>
<path d="M1029.77 123.666C1024.86 127.266 1018.61 129.555 1012.39 129.555C997.956 129.555 987.461 119.563 987.461 106.445V46.7452H972.529C969.236 46.7452 967.617 44.2891 967.617 41.833C967.617 39.3769 969.264 36.9208 972.529 36.9208H987.461V19.3653C987.461 16.0719 989.917 14.4531 992.373 14.4531C994.83 14.4531 997.286 16.0998 997.286 19.3653V36.9208H1026.31C1029.58 36.9208 1031.22 39.3769 1031.22 41.833C1031.22 44.2891 1029.58 46.7452 1026.31 46.7452H997.286V106.445C997.286 113.646 1002.87 119.73 1012.39 119.73C1021.9 119.73 1024.53 113.841 1028.29 113.841C1030.92 113.841 1033.07 116.297 1033.07 118.921C1033.07 121.042 1031.42 122.354 1029.77 123.666Z" fill="#152885"/>
<path d="M1116.69 127.94C1114.24 127.94 1111.78 126.293 1111.78 123.028V67.2635C1111.78 54.9551 1101.93 45.1307 1089.65 45.1307C1077.37 45.1307 1067.49 54.983 1067.49 67.2635V123.028C1067.49 126.321 1065.03 127.94 1062.58 127.94C1060.12 127.94 1057.66 126.293 1057.66 123.028V4.91219C1057.66 1.6467 1060.12 0 1062.58 0C1065.03 0 1067.49 1.6467 1067.49 4.91219V44.126C1073.24 38.7114 1081.11 35.2784 1089.65 35.2784C1107.37 35.2784 1121.63 49.5406 1121.63 67.2635V123.028C1121.63 126.321 1119.18 127.94 1116.72 127.94H1116.69Z" fill="#152885"/>
<path d="M1130.77 15.7999C1130.77 8.65758 1136.14 3.45312 1143.91 3.45313C1151.69 3.45313 1157 8.65758 1157 15.7999V25.0461C1157 32.1884 1151.69 37.3928 1143.91 37.3928C1136.08 37.3928 1130.77 32.1884 1130.77 25.0461V15.7999ZM1134.61 15.7999V25.0461C1134.61 29.9183 1138.06 33.5172 1143.91 33.5172C1149.72 33.5172 1153.17 29.9183 1153.17 25.0461V15.7999C1153.17 10.9276 1149.72 7.32878 1143.91 7.32878C1138.11 7.32878 1134.61 10.9276 1134.61 15.7999Z" fill="#152885"/>
</svg>
