<?xml version="1.0" encoding="UTF-8"?>
<svg id="Layer_1" data-name="Layer 1" xmlns="http://www.w3.org/2000/svg" viewBox="0 0 70 70.01">
  <defs>
    <style>
      .cls-1 {
        fill: #152885;
      }
    </style>
  </defs>
  <path class="cls-1" d="M35,6.49c-15.74,0-28.51,12.76-28.51,28.51s12.76,28.51,28.51,28.51,28.51-12.76,28.51-28.51S50.74,6.49,35,6.49ZM35.04,61.7c-14.42,0-26.77-11.28-26.77-26.67s12.35-26.67,26.77-26.67,26.67,11.28,26.67,26.67-12.36,26.67-26.67,26.67Z"/>
  <path class="cls-1" d="M35.04,13.26c-11.96,0-21.57,9.32-21.57,21.77s9.61,21.77,21.57,21.77,21.48-9.32,21.48-21.77-9.61-21.77-21.48-21.77ZM35.43,51.11c-9.32,0-16.28-6.77-16.28-16.08s6.96-16.08,16.08-16.08c6.18,0,10,2.16,12.75,5.4l-6.28,5.78c-1.47-1.57-3.53-2.84-6.27-2.84-4.22,0-6.47,3.43-6.47,7.75s2.25,7.75,6.57,7.75c3.34,0,5.3-1.76,6.67-3.04l6.27,5.69c-2.95,3.43-6.67,5.68-13.04,5.68Z"/>
</svg>