<svg preserveAspectRatio="none" width="100%" height="100%" overflow="visible" style="display: block;" viewBox="0 0 1333 151" fill="none" xmlns="http://www.w3.org/2000/svg">
<g id="cw-logo">
<path id="Vector" d="M65.3666 137.319C65.3666 137.319 64.6083 138.235 63.313 139.72C56.0781 147.334 45.4944 150.872 35.1002 150.872C14.5013 150.872 0 138.077 0 118.931V76.0277C0 56.9137 14.4697 44.0868 35.1002 44.0868C45.3048 44.0868 59.2375 48.5415 65.3666 57.6404C66.0932 58.7461 66.2828 59.8835 66.2828 60.7997C66.2828 63.959 63.5026 66.3601 60.5328 66.3601C59.0479 66.3601 57.3735 65.7914 56.0781 63.959C56.0781 63.959 55.8886 63.5799 55.1619 62.8533C50.1386 57.4824 42.3666 55.2393 35.1002 55.2393C19.6826 55.2393 11.1524 64.1486 11.1524 76.0277V118.931C11.1524 130.81 19.6826 139.72 35.1002 139.72C42.1455 139.72 51.813 137.129 56.0781 131C57.3735 129.326 59.0479 128.567 60.5328 128.567C63.5026 128.567 66.4723 131 66.4723 133.97C66.4723 135.076 66.0932 136.181 65.3666 137.319Z" fill="var(--fill-0, #152885)"/>
<path id="Vector_2" d="M130.511 150.841C110.449 150.841 94.3047 134.697 94.3047 114.635V80.2929C94.3047 60.2311 110.449 44.0869 130.511 44.0869C150.572 44.0869 166.717 60.2311 166.717 80.2929V114.635C166.717 134.697 150.572 150.841 130.511 150.841ZM155.564 80.2929C155.564 66.3602 144.412 55.2394 130.511 55.2394C116.61 55.2394 105.457 66.3918 105.457 80.2929V114.635C105.457 128.567 116.61 139.688 130.511 139.688C144.412 139.688 155.564 128.536 155.564 114.635V80.2929Z" fill="var(--fill-0, #152885)"/>
<path id="Vector_3" d="M311.509 149.012C308.729 149.012 305.948 147.148 305.948 143.452V76.6321C305.948 64.753 296.47 55.275 284.591 55.275C272.712 55.275 263.234 64.753 263.234 76.6321V143.452C263.234 147.338 260.454 149.202 257.674 149.202C254.894 149.202 252.113 147.338 252.113 143.452V76.6321C252.113 64.753 242.635 55.275 230.756 55.275C218.877 55.275 209.399 64.753 209.399 76.6321V143.452C209.399 147.18 206.619 149.012 203.839 149.012C201.059 149.012 198.278 147.148 198.278 143.452V76.6321C198.278 58.6239 212.748 44.1226 230.756 44.1226C241.909 44.1226 251.924 49.8726 257.674 58.4343C263.424 49.9041 273.47 44.1226 284.591 44.1226C302.599 44.1226 317.069 58.5923 317.069 76.6321V143.452C317.069 147.18 314.289 149.012 311.509 149.012Z" fill="var(--fill-0, #152885)"/>
<path id="Vector_4" d="M461.864 149.012C459.084 149.012 456.304 147.148 456.304 143.452V76.6319C456.304 64.7528 446.826 55.2749 434.947 55.2749C423.068 55.2749 413.59 64.7528 413.59 76.6319V143.452C413.59 147.338 410.81 149.202 408.029 149.202C405.249 149.202 402.469 147.338 402.469 143.452V76.6319C402.469 64.7528 392.991 55.2749 381.112 55.2749C369.233 55.2749 359.755 64.7528 359.755 76.6319V143.452C359.755 147.18 356.974 149.012 354.194 149.012C351.414 149.012 348.634 147.148 348.634 143.452V76.6319C348.634 58.6237 363.104 44.1224 381.112 44.1224C392.264 44.1224 402.279 49.8724 408.029 58.4342C413.779 49.904 423.826 44.1224 434.947 44.1224C452.955 44.1224 467.425 58.5922 467.425 76.6319V143.452C467.425 147.18 464.645 149.012 461.864 149.012Z" fill="var(--fill-0, #152885)"/>
<path id="Vector_5" d="M535.166 150.841C515.104 150.841 498.96 134.696 498.96 114.635V80.2928C498.96 60.231 515.104 44.0868 535.166 44.0868C555.228 44.0868 571.372 60.231 571.372 80.2928V114.635C571.372 134.696 555.228 150.841 535.166 150.841ZM560.22 80.2928C560.22 66.3601 549.067 55.2393 535.166 55.2393C521.265 55.2393 510.113 66.3917 510.113 80.2928V114.635C510.113 128.567 521.265 139.688 535.166 139.688C549.067 139.688 560.22 128.536 560.22 114.635V80.2928Z" fill="var(--fill-0, #152885)"/>
<path id="Vector_6" d="M669.719 149.012C666.939 149.012 664.159 147.148 664.159 143.452V80.3284C664.159 66.3957 653.006 55.2749 639.105 55.2749C625.204 55.2749 614.052 66.4273 614.052 80.3284V143.452C614.052 147.18 611.271 149.012 608.491 149.012C605.711 149.012 602.931 147.148 602.931 143.452V80.3284C602.931 60.2666 619.075 44.1224 639.137 44.1224C659.198 44.1224 675.343 60.2666 675.343 80.3284V143.452C675.343 147.18 672.562 149.012 669.782 149.012H669.719Z" fill="var(--fill-0, #152885)"/>
<path id="Vector_7" d="M827.341 53.1856L799.507 145.091C798.591 148.25 796.348 149.924 794.105 149.924C792.051 149.924 789.84 148.439 788.924 145.091L764.407 69.7089L740.08 145.091C738.975 148.439 736.921 149.924 734.678 149.924C732.435 149.924 730.413 148.25 729.497 145.091L701.631 53.1856C701.252 52.4274 701.252 51.8903 701.252 51.3216C701.252 47.9727 704.222 45.9192 707.002 45.9192C709.245 45.9192 711.267 47.0249 712.183 49.8367L734.836 124.839L759.163 49.8367C760.079 46.6774 762.322 45.003 764.376 45.003C766.619 45.003 768.641 46.6774 769.746 49.8367L793.884 124.839L816.726 49.8367C817.484 47.0565 819.695 45.9192 821.749 45.9192C824.719 45.9192 827.499 47.9727 827.499 51.3216C827.499 51.8903 827.499 52.4274 827.309 53.1856H827.341Z" fill="var(--fill-0, #152885)"/>
<path id="Vector_8" d="M920.288 98.8696H864.589V114.635C864.589 127.999 877.226 139.688 891.507 139.688C898.552 139.688 908.219 137.098 912.485 130.968C913.78 129.294 915.454 128.536 916.939 128.536C919.909 128.536 922.879 130.968 922.879 133.938C922.879 135.044 922.5 136.15 921.773 137.287C921.773 137.287 921.015 138.203 919.719 139.688C912.485 147.302 901.901 150.841 891.507 150.841C872.014 150.841 853.437 135.076 853.437 114.635V80.2928C853.437 60.231 869.581 44.0868 889.643 44.0868C909.704 44.0868 925.849 60.231 925.849 80.2928V93.3092C925.849 96.279 923.258 98.8696 920.288 98.8696ZM914.728 80.2928C914.728 66.3601 903.575 55.2393 889.674 55.2393C875.773 55.2393 864.621 66.3917 864.621 80.2928V87.7172H914.759V80.2928H914.728Z" fill="var(--fill-0, #152885)"/>
<path id="Vector_9" d="M987.475 150.843C969.846 150.843 953.702 140.449 953.702 120.956C953.702 101.463 969.278 93.1225 986.18 89.584C986.18 89.584 1000.84 86.4247 1009.94 84.5607V76.0305C1009.94 63.5827 1002.89 55.2421 987.855 55.2421C970.226 55.2421 969.467 66.3945 964.096 66.3945C961.316 66.3945 958.346 64.1514 958.346 61.0237C958.346 58.9701 959.642 57.1061 960.937 55.6528C967.445 47.4701 977.84 44.1528 987.855 44.1528C1008.83 44.1528 1021.09 57.5168 1021.09 76.0937V118.997C1021.09 138.111 1005.52 150.938 987.475 150.938V150.843ZM1009.94 95.9027L985.991 101.274C973.195 104.243 964.823 111.289 964.823 120.767C964.823 132.298 973.732 139.691 987.286 139.691C1000.84 139.691 1009.94 130.971 1009.94 118.903V95.8711V95.9027Z" fill="var(--fill-0, #152885)"/>
<path id="Vector_10" d="M1073.22 150.837C1072.65 150.837 1071.74 150.837 1071.01 150.458C1071.01 150.458 1069.91 150.079 1068.04 148.784C1058.41 142.655 1054.49 130.965 1054.49 119.813V9.74175C1054.49 6.04533 1057.27 4.18133 1060.05 4.18133C1062.83 4.18133 1065.61 6.04533 1065.61 9.74175V119.844C1065.61 126.7 1067.85 136.905 1075.09 140.096C1077.49 141.202 1078.63 143.255 1078.63 145.277C1078.63 148.057 1076.38 150.837 1073.26 150.837H1073.22Z" fill="var(--fill-0, #152885)"/>
<path id="Vector_11" d="M1165.67 144.168C1160.11 148.244 1153.03 150.835 1145.99 150.835C1129.65 150.835 1117.77 139.524 1117.77 124.675V57.0971H1100.87C1097.14 57.0971 1095.31 54.3169 1095.31 51.5367C1095.31 48.7565 1097.17 45.9763 1100.87 45.9763H1117.77V26.1041C1117.77 22.3761 1120.55 20.5437 1123.33 20.5437C1126.11 20.5437 1128.89 22.4077 1128.89 26.1041V45.9763H1161.75C1165.45 45.9763 1167.31 48.7565 1167.31 51.5367C1167.31 54.3169 1165.45 57.0971 1161.75 57.0971H1128.89V124.675C1128.89 132.826 1135.21 139.714 1145.99 139.714C1156.76 139.714 1159.73 133.047 1163.99 133.047C1166.96 133.047 1169.4 135.828 1169.4 138.797C1169.4 141.199 1167.53 142.683 1165.67 144.168Z" fill="var(--fill-0, #152885)"/>
<path id="Vector_12" d="M1264.05 149.005C1261.27 149.005 1258.49 147.141 1258.49 143.445V80.3212C1258.49 66.3886 1247.34 55.2677 1233.44 55.2677C1219.53 55.2677 1208.35 66.4202 1208.35 80.3212V143.445C1208.35 147.173 1205.57 149.005 1202.79 149.005C1200.01 149.005 1197.23 147.141 1197.23 143.445V9.74175C1197.23 6.04533 1200.01 4.18133 1202.79 4.18133C1205.57 4.18133 1208.35 6.04533 1208.35 9.74175V54.1304C1214.86 48.0013 1223.77 44.1153 1233.44 44.1153C1253.5 44.1153 1269.64 60.2595 1269.64 80.3212V143.445C1269.64 147.173 1266.86 149.005 1264.08 149.005H1264.05Z" fill="var(--fill-0, #152885)"/>
<path id="&#194;&#169;" d="M1283.05 23.2317C1283.05 9.79272 1293.26 0 1308.05 0C1322.85 0 1332.95 9.79272 1332.95 23.2317V40.6294C1332.95 54.0683 1322.85 63.861 1308.05 63.861C1293.16 63.861 1283.05 54.0683 1283.05 40.6294V23.2317ZM1290.34 23.2317V40.6294C1290.34 49.797 1296.91 56.5686 1308.05 56.5686C1319.1 56.5686 1325.66 49.797 1325.66 40.6294V23.2317C1325.66 14.064 1319.1 7.29245 1308.05 7.29245C1297.01 7.29245 1290.34 14.064 1290.34 23.2317ZM1312.74 34.5871V34.4829H1320.03V34.5871C1320.03 41.7753 1314.83 47.2968 1308.05 47.2968C1301.18 47.2968 1296.07 41.7753 1296.07 34.5871V29.1698C1296.07 21.9815 1301.18 16.4601 1308.05 16.4601C1314.83 16.4601 1320.03 21.9815 1320.03 29.1698V29.274H1312.74V29.1698C1312.74 25.9403 1310.76 23.7526 1308.05 23.7526C1305.34 23.7526 1303.37 25.9403 1303.37 29.1698V34.5871C1303.37 37.8166 1305.34 40.0043 1308.05 40.0043C1310.76 40.0043 1312.74 37.8166 1312.74 34.5871Z" fill="var(--fill-0, #152885)"/>
</g>
</svg>
