<svg width="1334" height="152" viewBox="0 0 1334 152" fill="none" xmlns="http://www.w3.org/2000/svg">
<path d="M65.7845 137.458C65.7845 137.458 65.0263 138.374 63.731 139.859C56.4961 147.473 45.9123 151.012 35.5181 151.012C14.9193 151.012 0.417969 138.216 0.417969 119.071V76.1669C0.417969 57.053 14.8877 44.2261 35.5181 44.2261C45.7228 44.2261 59.6554 48.6807 65.7845 57.7796C66.5112 58.8854 66.7008 60.0227 66.7008 60.9389C66.7008 64.0983 63.9205 66.4994 60.9508 66.4994C59.4659 66.4994 57.7914 65.9307 56.4961 64.0983C56.4961 64.0983 56.3066 63.7191 55.5799 62.9925C50.5566 57.6216 42.7846 55.3785 35.5181 55.3785C20.1006 55.3785 11.5704 64.2878 11.5704 76.1669V119.071C11.5704 130.95 20.1006 139.859 35.5181 139.859C42.5635 139.859 52.231 137.268 56.4961 131.139C57.7914 129.465 59.4659 128.707 60.9508 128.707C63.9205 128.707 66.8903 131.139 66.8903 134.109C66.8903 135.215 66.5112 136.321 65.7845 137.458Z" fill="#152885"/>
<path d="M130.929 150.98C110.867 150.98 94.7227 134.836 94.7227 114.774V80.432C94.7227 60.3703 110.867 44.2261 130.929 44.2261C150.99 44.2261 167.135 60.3703 167.135 80.432V114.774C167.135 134.836 150.99 150.98 130.929 150.98ZM155.982 80.432C155.982 66.4994 144.83 55.3785 130.929 55.3785C117.028 55.3785 105.875 66.531 105.875 80.432V114.774C105.875 128.707 117.028 139.827 130.929 139.827C144.83 139.827 155.982 128.675 155.982 114.774V80.432Z" fill="#152885"/>
<path d="M311.927 149.152C309.147 149.152 306.366 147.288 306.366 143.591V76.7712C306.366 64.8922 296.888 55.4142 285.009 55.4142C273.13 55.4142 263.652 64.8922 263.652 76.7712V143.591C263.652 147.477 260.872 149.341 258.092 149.341C255.312 149.341 252.531 147.477 252.531 143.591V76.7712C252.531 64.8922 243.053 55.4142 231.174 55.4142C219.295 55.4142 209.817 64.8922 209.817 76.7712V143.591C209.817 147.319 207.037 149.152 204.257 149.152C201.477 149.152 198.696 147.288 198.696 143.591V76.7712C198.696 58.7631 213.166 44.2617 231.174 44.2617C242.327 44.2617 252.342 50.0117 258.092 58.5735C263.842 50.0433 273.888 44.2617 285.009 44.2617C303.017 44.2617 317.487 58.7315 317.487 76.7712V143.591C317.487 147.319 314.707 149.152 311.927 149.152Z" fill="#152885"/>
<path d="M462.282 149.152C459.502 149.152 456.722 147.288 456.722 143.591V76.7712C456.722 64.8922 447.244 55.4142 435.365 55.4142C423.486 55.4142 414.008 64.8922 414.008 76.7712V143.591C414.008 147.477 411.227 149.341 408.447 149.341C405.667 149.341 402.887 147.477 402.887 143.591V76.7712C402.887 64.8922 393.409 55.4142 381.53 55.4142C369.651 55.4142 360.173 64.8922 360.173 76.7712V143.591C360.173 147.319 357.392 149.152 354.612 149.152C351.832 149.152 349.052 147.288 349.052 143.591V76.7712C349.052 58.7631 363.521 44.2617 381.53 44.2617C392.682 44.2617 402.697 50.0117 408.447 58.5735C414.197 50.0433 424.244 44.2617 435.365 44.2617C453.373 44.2617 467.843 58.7315 467.843 76.7712V143.591C467.843 147.319 465.062 149.152 462.282 149.152Z" fill="#152885"/>
<path d="M535.584 150.98C515.522 150.98 499.378 134.836 499.378 114.774V80.432C499.378 60.3703 515.522 44.2261 535.584 44.2261C555.646 44.2261 571.79 60.3703 571.79 80.432V114.774C571.79 134.836 555.646 150.98 535.584 150.98ZM560.637 80.432C560.637 66.4994 549.485 55.3785 535.584 55.3785C521.683 55.3785 510.53 66.531 510.53 80.432V114.774C510.53 128.707 521.683 139.827 535.584 139.827C549.485 139.827 560.637 128.675 560.637 114.774V80.432Z" fill="#152885"/>
<path d="M670.137 149.152C667.357 149.152 664.576 147.288 664.576 143.591V80.4677C664.576 66.535 653.424 55.4142 639.523 55.4142C625.622 55.4142 614.469 66.5666 614.469 80.4677V143.591C614.469 147.319 611.689 149.152 608.909 149.152C606.129 149.152 603.349 147.288 603.349 143.591V80.4677C603.349 60.4059 619.493 44.2617 639.555 44.2617C659.616 44.2617 675.761 60.4059 675.761 80.4677V143.591C675.761 147.319 672.98 149.152 670.2 149.152H670.137Z" fill="#152885"/>
<path d="M827.759 53.3248L799.925 145.23C799.009 148.389 796.766 150.063 794.523 150.063C792.469 150.063 790.258 148.579 789.341 145.23L764.825 69.8481L740.498 145.23C739.392 148.579 737.339 150.063 735.096 150.063C732.853 150.063 730.831 148.389 729.914 145.23L702.049 53.3248C701.67 52.5665 701.67 52.0294 701.67 51.4608C701.67 48.1119 704.64 46.0583 707.42 46.0583C709.663 46.0583 711.685 47.1641 712.601 49.9759L735.254 124.978L759.58 49.9759C760.497 46.8165 762.74 45.1421 764.793 45.1421C767.036 45.1421 769.058 46.8165 770.164 49.9759L794.301 124.978L817.144 49.9759C817.902 47.1957 820.113 46.0583 822.167 46.0583C825.137 46.0583 827.917 48.1119 827.917 51.4608C827.917 52.0294 827.917 52.5665 827.727 53.3248H827.759Z" fill="#152885"/>
<path d="M920.706 99.0089H865.007V114.774C865.007 128.138 877.644 139.827 891.924 139.827C898.97 139.827 908.637 137.237 912.902 131.108C914.198 129.433 915.872 128.675 917.357 128.675C920.327 128.675 923.297 131.108 923.297 134.077C923.297 135.183 922.917 136.289 922.191 137.426C922.191 137.426 921.433 138.343 920.137 139.827C912.902 147.441 902.319 150.98 891.924 150.98C872.431 150.98 853.854 135.215 853.854 114.774V80.432C853.854 60.3703 869.999 44.2261 890.06 44.2261C910.122 44.2261 926.266 60.3703 926.266 80.432V93.4485C926.266 96.4182 923.676 99.0089 920.706 99.0089ZM915.145 80.432C915.145 66.4994 903.993 55.3785 890.092 55.3785C876.191 55.3785 865.039 66.531 865.039 80.432V87.8564H915.177V80.432H915.145Z" fill="#152885"/>
<path d="M987.893 150.983C970.264 150.983 954.12 140.588 954.12 121.095C954.12 101.602 969.696 93.2616 986.598 89.7232C986.598 89.7232 1001.26 86.5638 1010.36 84.6998V76.1696C1010.36 63.7219 1003.31 55.3812 988.273 55.3812C970.644 55.3812 969.885 66.5337 964.514 66.5337C961.734 66.5337 958.764 64.2906 958.764 61.1628C958.764 59.1093 960.06 57.2452 961.355 55.792C967.863 47.6093 978.258 44.292 988.273 44.292C1009.25 44.292 1021.51 57.656 1021.51 76.2328V119.137C1021.51 138.251 1005.93 151.077 987.893 151.077V150.983ZM1010.36 96.0418L986.408 101.413C973.613 104.382 965.241 111.428 965.241 120.906C965.241 132.437 974.15 139.83 987.704 139.83C1001.26 139.83 1010.36 131.11 1010.36 119.042V96.0102V96.0418Z" fill="#152885"/>
<path d="M1073.64 150.976C1073.07 150.976 1072.16 150.976 1071.43 150.597C1071.43 150.597 1070.32 150.218 1068.46 148.923C1058.82 142.794 1054.91 131.104 1054.91 119.952V9.88074C1054.91 6.18432 1057.69 4.32031 1060.47 4.32031C1063.25 4.32031 1066.03 6.18432 1066.03 9.88074V119.983C1066.03 126.839 1068.27 137.044 1075.51 140.235C1077.91 141.341 1079.04 143.394 1079.04 145.416C1079.04 148.196 1076.8 150.976 1073.67 150.976H1073.64Z" fill="#152885"/>
<path d="M1166.09 144.307C1160.53 148.383 1153.45 150.973 1146.4 150.973C1130.07 150.973 1118.19 139.663 1118.19 124.814V57.2361H1101.29C1097.56 57.2361 1095.73 54.4559 1095.73 51.6757C1095.73 48.8955 1097.59 46.1152 1101.29 46.1152H1118.19V26.243C1118.19 22.515 1120.97 20.6826 1123.75 20.6826C1126.53 20.6826 1129.31 22.5466 1129.31 26.243V46.1152H1162.17C1165.87 46.1152 1167.73 48.8955 1167.73 51.6757C1167.73 54.4559 1165.87 57.2361 1162.17 57.2361H1129.31V124.814C1129.31 132.965 1135.63 139.853 1146.4 139.853C1157.18 139.853 1160.15 133.186 1164.41 133.186C1167.38 133.186 1169.81 135.967 1169.81 138.936C1169.81 141.337 1167.95 142.822 1166.09 144.307Z" fill="#152885"/>
<path d="M1264.47 149.144C1261.69 149.144 1258.91 147.28 1258.91 143.584V80.4602C1258.91 66.5276 1247.75 55.4067 1233.85 55.4067C1219.95 55.4067 1208.77 66.5591 1208.77 80.4602V143.584C1208.77 147.312 1205.99 149.144 1203.21 149.144C1200.43 149.144 1197.65 147.28 1197.65 143.584V9.88074C1197.65 6.18432 1200.43 4.32031 1203.21 4.32031C1205.99 4.32031 1208.77 6.18432 1208.77 9.88074V54.2693C1215.28 48.1402 1224.19 44.2543 1233.85 44.2543C1253.92 44.2543 1270.06 60.3985 1270.06 80.4602V143.584C1270.06 147.312 1267.28 149.144 1264.5 149.144H1264.47Z" fill="#152885"/>
<path d="M1283.47 23.3708C1283.47 9.93188 1293.68 0.13916 1308.47 0.13916C1323.26 0.13916 1333.37 9.93188 1333.37 23.3708V40.7685C1333.37 54.2075 1323.26 64.0002 1308.47 64.0002C1293.57 64.0002 1283.47 54.2075 1283.47 40.7685V23.3708ZM1290.76 23.3708V40.7685C1290.76 49.9362 1297.32 56.7077 1308.47 56.7077C1319.51 56.7077 1326.08 49.9362 1326.08 40.7685V23.3708C1326.08 14.2032 1319.51 7.43161 1308.47 7.43161C1297.43 7.43161 1290.76 14.2032 1290.76 23.3708ZM1313.16 34.7262V34.622H1320.45V34.7262C1320.45 41.9145 1315.24 47.4359 1308.47 47.4359C1301.6 47.4359 1296.49 41.9145 1296.49 34.7262V29.309C1296.49 22.1207 1301.6 16.5993 1308.47 16.5993C1315.24 16.5993 1320.45 22.1207 1320.45 29.309V29.4131H1313.16V29.309C1313.16 26.0795 1311.18 23.8917 1308.47 23.8917C1305.76 23.8917 1303.78 26.0795 1303.78 29.309V34.7262C1303.78 37.9557 1305.76 40.1435 1308.47 40.1435C1311.18 40.1435 1313.16 37.9557 1313.16 34.7262Z" fill="#152885"/>
</svg>
