<svg width="44" height="44" viewBox="0 0 44 44" fill="none" xmlns="http://www.w3.org/2000/svg">
<path d="M0.585786 40.5858C-0.195262 41.3668 -0.195262 42.6332 0.585786 43.4142C1.36684 44.1953 2.63316 44.1953 3.41421 43.4142L0.585786 40.5858ZM44 2C44 0.895429 43.1046 -1.12544e-06 42 -1.12544e-06L24 -1.12544e-06C22.8954 -1.12544e-06 22 0.895429 22 2C22 3.10457 22.8954 4 24 4H40V20C40 21.1046 40.8954 22 42 22C43.1046 22 44 21.1046 44 20L44 2ZM3.41421 43.4142L43.4142 3.41421L40.5858 0.585785L0.585786 40.5858L3.41421 43.4142Z" fill="#152885"/>
</svg>
