<svg width="29" height="29" viewBox="0 0 29 29" fill="none" xmlns="http://www.w3.org/2000/svg">
<path d="M0.585786 25.5858C-0.195262 26.3668 -0.195262 27.6332 0.585786 28.4142C1.36684 29.1953 2.63316 29.1953 3.41421 28.4142L0.585786 25.5858ZM29 2C29 0.89543 28.1046 -8.73537e-08 27 2.10428e-06L9 1.00846e-06C7.89543 3.34115e-07 7 0.895431 7 2C7 3.10457 7.89543 4 9 4L25 4L25 20C25 21.1046 25.8954 22 27 22C28.1046 22 29 21.1046 29 20L29 2ZM3.41421 28.4142L28.4142 3.41421L25.5858 0.585787L0.585786 25.5858L3.41421 28.4142Z" fill="white"/>
</svg>
