<svg preserveAspectRatio="none" width="100%" height="100%" overflow="visible" style="display: block;" viewBox="0 0 760 471" fill="none" xmlns="http://www.w3.org/2000/svg">
<g id="main-logo-V2">
<g id="Vector">
<path d="M239.552 130.769C239.552 55.1224 297.02 0 380.29 0C463.56 0 520.442 55.1224 520.442 130.769V228.699C520.442 304.346 463.56 359.468 380.29 359.468C296.434 359.468 239.552 304.346 239.552 228.699V130.769ZM280.601 130.769V228.699C280.601 280.303 317.545 318.42 380.29 318.42C442.45 318.42 479.393 280.303 479.393 228.699V130.769C479.393 79.1651 442.45 41.0486 380.29 41.0486C318.131 41.0486 280.601 79.1651 280.601 130.769ZM406.679 194.688V194.101H447.727V194.688C447.727 235.15 418.407 266.229 380.29 266.229C341.587 266.229 312.853 235.15 312.853 194.688V164.194C312.853 123.732 341.587 92.6525 380.29 92.6525C418.407 92.6525 447.727 123.732 447.727 164.194V164.781H406.679V164.194C406.679 146.016 395.537 133.701 380.29 133.701C365.044 133.701 353.902 146.016 353.902 164.194V194.688C353.902 212.866 365.044 225.181 380.29 225.181C395.537 225.181 406.679 212.866 406.679 194.688Z" fill="var(--fill-0, #FAF8EF)"/>
<path d="M0 131.537C0 55.8904 57.468 0.768051 140.738 0.768051C224.008 0.768051 280.89 55.8904 280.89 131.537V229.467C280.89 305.114 224.008 360.236 140.738 360.236C56.8816 360.236 0 305.114 0 229.467V131.537ZM41.0486 131.537V229.467C41.0486 281.071 77.9923 319.188 140.738 319.188C202.897 319.188 239.841 281.071 239.841 229.467V131.537C239.841 79.9332 202.897 41.8166 140.738 41.8166C78.5787 41.8166 41.0486 79.9332 41.0486 131.537ZM167.126 195.456V194.869H208.175V195.456C208.175 235.918 178.855 266.997 140.738 266.997C102.035 266.997 73.301 235.918 73.301 195.456V164.962C73.301 124.5 102.035 93.4206 140.738 93.4206C178.855 93.4206 208.175 124.5 208.175 164.962V165.549H167.126V164.962C167.126 146.784 155.985 134.469 140.738 134.469C125.491 134.469 114.35 146.784 114.35 164.962V195.456C114.35 213.634 125.491 225.949 140.738 225.949C155.985 225.949 167.126 213.634 167.126 195.456Z" fill="var(--fill-0, #FAF8EF)"/>
<path d="M479.112 131.537C479.112 55.8905 536.58 0.768082 619.85 0.768082C703.12 0.768082 760.002 55.8905 760.002 131.537V229.467C760.002 305.114 703.12 360.236 619.85 360.236C535.994 360.236 479.112 305.114 479.112 229.467V131.537ZM520.161 131.537V229.467C520.161 281.071 557.105 319.188 619.85 319.188C682.01 319.188 718.953 281.071 718.953 229.467V131.537C718.953 79.9332 682.01 41.8167 619.85 41.8167C557.691 41.8167 520.161 79.9332 520.161 131.537ZM646.239 195.456V194.869H687.287V195.456C687.287 235.918 657.967 266.997 619.85 266.997C581.147 266.997 552.413 235.918 552.413 195.456V164.962C552.413 124.5 581.147 93.4206 619.85 93.4206C657.967 93.4206 687.287 124.5 687.287 164.962V165.549H646.239V164.962C646.239 146.784 635.097 134.469 619.85 134.469C604.604 134.469 593.462 146.784 593.462 164.962V195.456C593.462 213.634 604.604 225.949 619.85 225.949C635.097 225.949 646.239 213.634 646.239 195.456Z" fill="var(--fill-0, #FAF8EF)"/>
</g>
<g id="Commonwealth_Logo_R White" clip-path="url(#clip0_572_23)">
<path id="Vector_2" d="M581.862 429.768C581.586 429.518 581.201 429.4 580.721 429.4H579.187H579.077V429.509V433.871V433.98H579.187H579.996H580.106V433.871V432.376H580.664C580.961 432.889 581.215 433.401 581.431 433.913L581.459 433.98H581.533H582.459H582.625L582.558 433.826C582.307 433.276 582.01 432.717 581.664 432.15C581.844 432.046 581.986 431.907 582.092 431.733C582.215 431.526 582.275 431.288 582.275 431.023V430.747C582.275 430.344 582.141 430.014 581.862 429.768ZM581.099 430.441L581.102 430.445C581.183 430.515 581.226 430.612 581.226 430.747V431.023C581.226 431.164 581.183 431.265 581.099 431.34C581.024 431.409 580.904 431.453 580.721 431.453H580.106V430.324H580.721C580.901 430.324 581.021 430.369 581.099 430.441Z" fill="var(--fill-0, #FAF8EF)" stroke="var(--stroke-0, #FAF8EF)" stroke-width="0.617085"/>
<path id="Vector_3" d="M196.736 466.032C196.736 466.032 196.499 466.318 196.095 466.782C193.836 469.158 190.532 470.263 187.287 470.263C180.857 470.263 176.33 466.269 176.33 460.292V446.898C176.33 440.932 180.847 436.927 187.287 436.927C190.473 436.927 194.823 438.318 196.736 441.158C196.963 441.504 197.022 441.859 197.022 442.145C197.022 443.131 196.154 443.881 195.227 443.881C194.763 443.881 194.241 443.703 193.836 443.131C193.836 443.131 193.777 443.013 193.55 442.786C191.982 441.109 189.556 440.409 187.287 440.409C182.474 440.409 179.812 443.19 179.812 446.898V460.292C179.812 464 182.474 466.782 187.287 466.782C189.487 466.782 192.505 465.973 193.836 464.06C194.241 463.537 194.763 463.3 195.227 463.3C196.154 463.3 197.081 464.06 197.081 464.986C197.081 465.332 196.963 465.677 196.736 466.032Z" fill="var(--fill-0, #FAF8EF)"/>
<path id="Vector_4" d="M217.07 470.253C210.807 470.253 205.768 465.213 205.768 458.951V448.23C205.768 441.967 210.807 436.927 217.07 436.927C223.333 436.927 228.373 441.967 228.373 448.23V458.951C228.373 465.213 223.333 470.253 217.07 470.253ZM224.891 448.23C224.891 443.881 221.41 440.409 217.07 440.409C212.73 440.409 209.249 443.89 209.249 448.23V458.951C209.249 463.3 212.73 466.772 217.07 466.772C221.41 466.772 224.891 463.29 224.891 458.951V448.23Z" fill="var(--fill-0, #FAF8EF)"/>
<path id="Vector_5" d="M273.573 469.682C272.705 469.682 271.837 469.1 271.837 467.947V447.087C271.837 443.379 268.878 440.42 265.17 440.42C261.462 440.42 258.503 443.379 258.503 447.087V467.947C258.503 469.16 257.635 469.741 256.767 469.741C255.899 469.741 255.031 469.16 255.031 467.947V447.087C255.031 443.379 252.072 440.42 248.364 440.42C244.656 440.42 241.697 443.379 241.697 447.087V467.947C241.697 469.11 240.829 469.682 239.961 469.682C239.093 469.682 238.225 469.1 238.225 467.947V447.087C238.225 441.465 242.742 436.938 248.364 436.938C251.845 436.938 254.972 438.733 256.767 441.406C258.562 438.743 261.698 436.938 265.17 436.938C270.792 436.938 275.309 441.455 275.309 447.087V467.947C275.309 469.11 274.441 469.682 273.573 469.682Z" fill="var(--fill-0, #FAF8EF)"/>
<path id="Vector_6" d="M320.513 469.682C319.645 469.682 318.777 469.1 318.777 467.947V447.087C318.777 443.379 315.819 440.42 312.11 440.42C308.402 440.42 305.443 443.379 305.443 447.087V467.947C305.443 469.16 304.575 469.741 303.707 469.741C302.839 469.741 301.971 469.16 301.971 467.947V447.087C301.971 443.379 299.013 440.42 295.304 440.42C291.596 440.42 288.637 443.379 288.637 447.087V467.947C288.637 469.11 287.769 469.682 286.901 469.682C286.033 469.682 285.165 469.1 285.165 467.947V447.087C285.165 441.465 289.683 436.938 295.304 436.938C298.786 436.938 301.912 438.733 303.707 441.406C305.502 438.743 308.638 436.938 312.11 436.938C317.732 436.938 322.249 441.455 322.249 447.087V467.947C322.249 469.11 321.381 469.682 320.513 469.682Z" fill="var(--fill-0, #FAF8EF)"/>
<path id="Vector_7" d="M343.395 470.253C337.132 470.253 332.092 465.213 332.092 458.951V448.23C332.092 441.967 337.132 436.927 343.395 436.927C349.657 436.927 354.697 441.967 354.697 448.23V458.951C354.697 465.213 349.657 470.253 343.395 470.253ZM351.216 448.23C351.216 443.881 347.734 440.409 343.395 440.409C339.055 440.409 335.573 443.89 335.573 448.23V458.951C335.573 463.3 339.055 466.772 343.395 466.772C347.734 466.772 351.216 463.29 351.216 458.951V448.23Z" fill="var(--fill-0, #FAF8EF)"/>
<path id="Vector_8" d="M385.397 469.682C384.529 469.682 383.661 469.1 383.661 467.947V448.241C383.661 443.892 380.179 440.42 375.84 440.42C371.5 440.42 368.019 443.901 368.019 448.241V467.947C368.019 469.11 367.151 469.682 366.283 469.682C365.415 469.682 364.547 469.1 364.547 467.947V448.241C364.547 441.978 369.587 436.938 375.85 436.938C382.112 436.938 387.152 441.978 387.152 448.241V467.947C387.152 469.11 386.284 469.682 385.416 469.682H385.397Z" fill="var(--fill-0, #FAF8EF)"/>
<path id="Vector_9" d="M434.602 439.763L425.913 468.454C425.627 469.44 424.927 469.963 424.227 469.963C423.586 469.963 422.895 469.499 422.609 468.454L414.956 444.921L407.362 468.454C407.017 469.499 406.376 469.963 405.675 469.963C404.975 469.963 404.344 469.44 404.058 468.454L395.359 439.763C395.24 439.527 395.24 439.359 395.24 439.181C395.24 438.136 396.168 437.495 397.036 437.495C397.736 437.495 398.367 437.84 398.653 438.718L405.725 462.132L413.319 438.718C413.605 437.732 414.305 437.209 414.946 437.209C415.646 437.209 416.278 437.732 416.623 438.718L424.158 462.132L431.289 438.718C431.525 437.85 432.215 437.495 432.857 437.495C433.784 437.495 434.652 438.136 434.652 439.181C434.652 439.359 434.652 439.527 434.593 439.763H434.602Z" fill="var(--fill-0, #FAF8EF)"/>
<path id="Vector_10" d="M463.622 454.029H446.234V458.951C446.234 463.122 450.179 466.772 454.637 466.772C456.836 466.772 459.854 465.963 461.185 464.05C461.59 463.527 462.113 463.29 462.576 463.29C463.503 463.29 464.43 464.05 464.43 464.977C464.43 465.322 464.312 465.667 464.085 466.022C464.085 466.022 463.848 466.308 463.444 466.772C461.185 469.148 457.882 470.253 454.637 470.253C448.552 470.253 442.752 465.332 442.752 458.951V448.23C442.752 441.967 447.792 436.927 454.055 436.927C460.318 436.927 465.357 441.967 465.357 448.23V452.293C465.357 453.22 464.549 454.029 463.622 454.029ZM461.886 448.23C461.886 443.881 458.404 440.409 454.065 440.409C449.725 440.409 446.244 443.89 446.244 448.23V450.548H461.896V448.23H461.886Z" fill="var(--fill-0, #FAF8EF)"/>
<path id="Vector_11" d="M484.594 470.253C479.09 470.253 474.051 467.008 474.051 460.923C474.051 454.837 478.913 452.234 484.189 451.129C484.189 451.129 488.766 450.143 491.606 449.561V446.898C491.606 443.012 489.407 440.408 484.712 440.408C479.209 440.408 478.972 443.89 477.295 443.89C476.427 443.89 475.5 443.19 475.5 442.213C475.5 441.572 475.905 440.99 476.309 440.537C478.341 437.982 481.586 436.947 484.712 436.947C491.261 436.947 495.087 441.119 495.087 446.918V460.311C495.087 466.278 490.225 470.282 484.594 470.282V470.253ZM491.606 453.102L484.13 454.778C480.136 455.705 477.522 457.905 477.522 460.864C477.522 464.463 480.304 466.771 484.534 466.771C488.766 466.771 491.606 464.049 491.606 460.282V453.092V453.102Z" fill="var(--fill-0, #FAF8EF)"/>
<path id="Vector_12" d="M511.363 470.251C511.185 470.251 510.899 470.251 510.673 470.132C510.673 470.132 510.327 470.014 509.745 469.61C506.737 467.696 505.514 464.047 505.514 460.565V426.204C505.514 425.05 506.382 424.468 507.25 424.468C508.118 424.468 508.986 425.05 508.986 426.204V460.575C508.986 462.716 509.686 465.901 511.945 466.897C512.694 467.242 513.049 467.884 513.049 468.515C513.049 469.383 512.349 470.251 511.373 470.251H511.363Z" fill="var(--fill-0, #FAF8EF)"/>
<path id="Vector_13" d="M540.221 468.168C538.486 469.44 536.277 470.249 534.079 470.249C528.979 470.249 525.27 466.718 525.27 462.083V440.987H519.993C518.83 440.987 518.258 440.119 518.258 439.251C518.258 438.383 518.84 437.515 519.993 437.515H525.27V431.311C525.27 430.148 526.138 429.576 527.006 429.576C527.874 429.576 528.742 430.157 528.742 431.311V437.515H538.998C540.154 437.515 540.733 438.383 540.733 439.251C540.733 440.119 540.154 440.987 538.998 440.987H528.742V462.083C528.742 464.627 530.715 466.777 534.079 466.777C537.44 466.777 538.369 464.696 539.698 464.696C540.627 464.696 541.387 465.564 541.387 466.491C541.387 467.241 540.804 467.705 540.221 468.168Z" fill="var(--fill-0, #FAF8EF)"/>
<path id="Vector_14" d="M570.936 469.679C570.07 469.679 569.201 469.097 569.201 467.943V448.237C569.201 443.888 565.72 440.416 561.381 440.416C557.041 440.416 553.55 443.898 553.55 448.237V467.943C553.55 469.106 552.681 469.679 551.815 469.679C550.945 469.679 550.076 469.097 550.076 467.943V426.204C550.076 425.05 550.945 424.468 551.815 424.468C552.681 424.468 553.55 425.05 553.55 426.204V440.061C555.582 438.148 558.363 436.935 561.381 436.935C567.642 436.935 572.681 441.974 572.681 448.237V467.943C572.681 469.106 571.816 469.679 570.946 469.679H570.936Z" fill="var(--fill-0, #FAF8EF)"/>
<path id="Vector_15" d="M575.911 430.051C575.911 427.528 577.809 425.689 580.554 425.689C583.304 425.689 585.18 427.528 585.18 430.051V433.319C585.18 435.843 583.304 437.682 580.554 437.682C577.788 437.682 575.911 435.843 575.911 433.319V430.051ZM577.268 430.051V433.319C577.268 435.041 578.487 436.312 580.554 436.312C582.608 436.312 583.827 435.041 583.827 433.319V430.051C583.827 428.33 582.608 427.058 580.554 427.058C578.505 427.058 577.268 428.33 577.268 430.051Z" fill="var(--fill-0, #FAF8EF)"/>
</g>
</g>
<defs>
<clipPath id="clip0_572_23">
<rect width="408.85" height="45.9382" fill="white" transform="translate(176.33 424.468)"/>
</clipPath>
</defs>
</svg>
