<svg fill="none" height="471" viewBox="0 0 761 471" width="761" xmlns="http://www.w3.org/2000/svg" xmlns:xlink="http://www.w3.org/1999/xlink"><clipPath id="a"><path d="m177 425h408.85v45.9382h-408.85z"/></clipPath><g fill="#faf8ef"><path d="m240.222 131.301c0-75.6469 57.468-130.769262 140.738-130.769262s140.152 55.122362 140.152 130.769262v97.93c0 75.647-56.882 130.769-140.152 130.769-83.856 0-140.738-55.122-140.738-130.769zm41.049 0v97.93c0 51.604 36.944 89.721 99.689 89.721 62.16 0 99.103-38.117 99.103-89.721v-97.93c0-51.6041-36.943-89.7207-99.103-89.7207-62.159 0-99.689 38.1166-99.689 89.7207zm126.078 63.918v-.586h41.048v.586c0 40.463-29.32 71.542-67.437 71.542-38.703 0-67.437-31.079-67.437-71.542v-30.493c0-40.462 28.734-71.5417 67.437-71.5417 38.117 0 67.437 31.0797 67.437 71.5417v.586h-41.048v-.586c0-18.179-11.142-30.493-26.389-30.493-15.246 0-26.388 12.314-26.388 30.493v30.493c0 18.179 11.142 30.494 26.388 30.494 15.247 0 26.389-12.315 26.389-30.494z"/><path d="m.669922 132.069c0-75.6468 57.467978-130.76921 140.738078-130.76921 83.27 0 140.152 55.12241 140.152 130.76921v97.93c0 75.647-56.882 130.769-140.152 130.769-83.8565 0-140.738078-55.122-140.738078-130.769zm41.048578 0v97.93c0 51.604 36.9437 89.721 99.6895 89.721 62.159 0 99.103-38.117 99.103-89.721v-97.93c0-51.6041-36.944-89.7206-99.103-89.7206-62.1594 0-99.6895 38.1165-99.6895 89.7206zm126.0775 63.918v-.586h41.049v.586c0 40.463-29.321 71.542-67.437 71.542-38.703 0-67.437-31.079-67.437-71.542v-30.493c0-40.462 28.734-71.5417 67.437-71.5417 38.116 0 67.437 31.0797 67.437 71.5417v.587h-41.049v-.587c0-18.179-11.141-30.493-26.388-30.493s-26.388 12.314-26.388 30.493v30.493c0 18.179 11.141 30.494 26.388 30.494s26.388-12.315 26.388-30.494z"/><path d="m479.782 132.069c0-75.6468 57.468-130.76918 140.738-130.76918s140.152 55.12238 140.152 130.76918v97.93c0 75.647-56.882 130.769-140.152 130.769-83.856 0-140.738-55.122-140.738-130.769zm41.049 0v97.93c0 51.604 36.943 89.721 99.689 89.721 62.16 0 99.103-38.117 99.103-89.721v-97.93c0-51.604-36.943-89.7206-99.103-89.7206-62.159 0-99.689 38.1166-99.689 89.7206zm126.078 63.918v-.586h41.048v.586c0 40.463-29.32 71.542-67.437 71.542-38.703 0-67.437-31.079-67.437-71.542v-30.493c0-40.462 28.734-71.5416 67.437-71.5416 38.117 0 67.437 31.0796 67.437 71.5416v.587h-41.048v-.587c0-18.178-11.142-30.493-26.389-30.493-15.246 0-26.388 12.315-26.388 30.493v30.493c0 18.179 11.142 30.494 26.388 30.494 15.247 0 26.389-12.315 26.389-30.494z"/><g clip-path="url(#a)"><path d="m582.533 430.3c-.276-.251-.661-.368-1.142-.368h-1.533-.11v.109 4.361.109h.11.809.109v-.109-1.494h.559c.297.513.551 1.025.767 1.537l.028.066h.074.926.166l-.067-.154c-.251-.549-.548-1.108-.894-1.676.18-.103.321-.242.427-.416.124-.207.184-.445.184-.71v-.276c0-.403-.134-.733-.413-.979zm-.764.673.004.003c.081.071.124.167.124.303v.276c0 .141-.043.242-.128.317-.074.069-.194.112-.378.112h-.615v-1.128h.615c.18 0 .301.045.378.117z" stroke="#faf8ef" stroke-width=".617085"/><path d="m197.406 466.564s-.237.286-.641.749c-2.259 2.377-5.563 3.482-8.808 3.482-6.43 0-10.957-3.995-10.957-9.971v-13.394c0-5.967 4.517-9.971 10.957-9.971 3.186 0 7.535 1.391 9.449 4.231.227.345.286.7.286.986 0 .987-.868 1.736-1.795 1.736-.464 0-.986-.177-1.391-.749 0 0-.059-.119-.286-.346-1.568-1.676-3.994-2.377-6.263-2.377-4.813 0-7.475 2.782-7.475 6.49v13.394c0 3.708 2.662 6.489 7.475 6.489 2.2 0 5.218-.809 6.549-2.722.405-.523.927-.759 1.391-.759.927 0 1.854.759 1.854 1.686 0 .345-.118.691-.345 1.046z"/><path d="m217.74 470.785c-6.263 0-11.302-5.04-11.302-11.303v-10.72c0-6.263 5.039-11.303 11.302-11.303s11.303 5.04 11.303 11.303v10.72c0 6.263-5.04 11.303-11.303 11.303zm7.821-22.023c0-4.35-3.481-7.822-7.821-7.822s-7.821 3.482-7.821 7.822v10.72c0 4.35 3.481 7.821 7.821 7.821s7.821-3.481 7.821-7.821z"/><path d="m274.242 470.214c-.868 0-1.736-.582-1.736-1.736v-20.859c0-3.708-2.958-6.667-6.667-6.667-3.708 0-6.667 2.959-6.667 6.667v20.859c0 1.214-.868 1.795-1.736 1.795s-1.736-.581-1.736-1.795v-20.859c0-3.708-2.958-6.667-6.667-6.667-3.708 0-6.667 2.959-6.667 6.667v20.859c0 1.164-.867 1.736-1.736 1.736-.868 0-1.735-.582-1.735-1.736v-20.859c0-5.622 4.517-10.149 10.138-10.149 3.482 0 6.608 1.795 8.403 4.468 1.795-2.663 4.932-4.468 8.403-4.468 5.622 0 10.139 4.517 10.139 10.149v20.859c0 1.164-.868 1.736-1.736 1.736z"/><path d="m321.184 470.214c-.868 0-1.736-.582-1.736-1.736v-20.859c0-3.708-2.959-6.667-6.667-6.667s-6.667 2.959-6.667 6.667v20.859c0 1.214-.868 1.795-1.736 1.795s-1.736-.581-1.736-1.795v-20.859c0-3.708-2.959-6.667-6.667-6.667s-6.667 2.959-6.667 6.667v20.859c0 1.164-.868 1.736-1.736 1.736s-1.736-.582-1.736-1.736v-20.859c0-5.622 4.517-10.149 10.139-10.149 3.481 0 6.608 1.795 8.403 4.468 1.795-2.663 4.931-4.468 8.403-4.468 5.622 0 10.138 4.517 10.138 10.149v20.859c0 1.164-.868 1.736-1.735 1.736z"/><path d="m344.064 470.785c-6.263 0-11.302-5.04-11.302-11.303v-10.72c0-6.263 5.039-11.303 11.302-11.303s11.303 5.04 11.303 11.303v10.72c0 6.263-5.04 11.303-11.303 11.303zm7.821-22.023c0-4.35-3.481-7.822-7.821-7.822-4.339 0-7.821 3.482-7.821 7.822v10.72c0 4.35 3.482 7.821 7.821 7.821 4.34 0 7.821-3.481 7.821-7.821z"/><path d="m386.066 470.214c-.867 0-1.735-.582-1.735-1.736v-19.705c0-4.35-3.482-7.821-7.822-7.821-4.339 0-7.821 3.481-7.821 7.821v19.705c0 1.164-.868 1.736-1.735 1.736-.868 0-1.736-.582-1.736-1.736v-19.705c0-6.263 5.04-11.303 11.302-11.303 6.263 0 11.303 5.04 11.303 11.303v19.705c0 1.164-.868 1.736-1.736 1.736z"/><path d="m435.272 440.295-8.689 28.691c-.286.986-.986 1.508-1.687 1.508-.641 0-1.331-.463-1.617-1.508l-7.653-23.533-7.595 23.533c-.345 1.045-.986 1.508-1.686 1.508s-1.332-.522-1.618-1.508l-8.698-28.691c-.119-.237-.119-.404-.119-.582 0-1.045.927-1.686 1.795-1.686.7 0 1.332.345 1.618 1.223l7.071 23.414 7.595-23.414c.285-.987.986-1.509 1.627-1.509.7 0 1.331.522 1.676 1.509l7.536 23.414 7.13-23.414c.237-.868.927-1.223 1.568-1.223.927 0 1.795.641 1.795 1.686 0 .178 0 .345-.059.582z"/><path d="m464.291 454.561h-17.387v4.921c0 4.172 3.945 7.821 8.402 7.821 2.2 0 5.218-.809 6.549-2.722.405-.522.927-.759 1.391-.759.927 0 1.854.759 1.854 1.686 0 .345-.118.691-.345 1.046 0 0-.237.286-.641.749-2.259 2.377-5.563 3.482-8.808 3.482-6.085 0-11.884-4.922-11.884-11.303v-10.72c0-6.263 5.04-11.303 11.302-11.303 6.263 0 11.303 5.04 11.303 11.303v4.063c0 .927-.809 1.736-1.736 1.736zm-1.736-5.799c0-4.35-3.481-7.822-7.821-7.822-4.339 0-7.82 3.482-7.82 7.822v2.317h15.651v-2.317z"/><path d="m485.264 470.785c-5.504 0-10.543-3.245-10.543-9.33 0-6.086 4.862-8.689 10.138-9.794 0 0 4.577-.986 7.417-1.568v-2.663c0-3.886-2.199-6.49-6.894-6.49-5.503 0-5.74 3.482-7.417 3.482-.868 0-1.795-.7-1.795-1.677 0-.641.405-1.223.809-1.676 2.032-2.555 5.277-3.59 8.403-3.59 6.549 0 10.376 4.171 10.376 9.971v13.393c0 5.967-4.863 9.971-10.494 9.971zm7.012-17.151-7.476 1.676c-3.994.927-6.608 3.127-6.608 6.086 0 3.599 2.782 5.907 7.013 5.907s7.071-2.722 7.071-6.489v-7.19z"/><path d="m512.032 470.782c-.178 0-.463 0-.69-.118 0 0-.345-.118-.927-.523-3.009-1.913-4.231-5.562-4.231-9.044v-34.361c0-1.154.867-1.736 1.735-1.736s1.736.582 1.736 1.736v34.371c0 2.14.7 5.326 2.959 6.322.749.345 1.105.986 1.105 1.618 0 .867-.701 1.735-1.677 1.735z"/><path d="m540.891 468.7c-1.735 1.272-3.944 2.081-6.142 2.081-5.1 0-8.809-3.531-8.809-8.166v-21.096h-5.277c-1.163 0-1.735-.868-1.735-1.736s.582-1.736 1.735-1.736h5.277v-6.204c0-1.164.868-1.736 1.736-1.736s1.736.582 1.736 1.736v6.204h10.256c1.156 0 1.735.868 1.735 1.736s-.579 1.736-1.735 1.736h-10.256v21.096c0 2.544 1.973 4.694 5.337 4.694 3.361 0 4.29-2.081 5.619-2.081.929 0 1.689.868 1.689 1.795 0 .75-.583 1.213-1.166 1.677z"/><path d="m571.606 470.21c-.866 0-1.735-.582-1.735-1.735v-19.706c0-4.349-3.481-7.821-7.821-7.821-4.339 0-7.83 3.481-7.83 7.821v19.706c0 1.163-.87 1.735-1.735 1.735-.87 0-1.739-.582-1.739-1.735v-41.739c0-1.154.869-1.736 1.739-1.736.865 0 1.735.582 1.735 1.736v13.857c2.032-1.914 4.813-3.127 7.83-3.127 6.262 0 11.301 5.04 11.301 11.303v19.706c0 1.163-.866 1.735-1.735 1.735z"/><path d="m576.582 430.583c0-2.524 1.898-4.363 4.643-4.363 2.75 0 4.626 1.839 4.626 4.363v3.268c0 2.523-1.876 4.363-4.626 4.363-2.767 0-4.643-1.84-4.643-4.363zm1.357 0v3.268c0 1.721 1.219 2.993 3.286 2.993 2.053 0 3.273-1.272 3.273-2.993v-3.268c0-1.722-1.22-2.993-3.273-2.993-2.049 0-3.286 1.271-3.286 2.993z"/></g></g></svg>